{"title":"State of Play 2009 DVD9rip English Klam","uid":6030709,"size":2105081007,"categoryP":"video","categoryS":"movies","magnet":"?xt=urn:btih:43e84dd6a6799b54bebb7deae0c60a878eaac5b9&amp;dn=State+of+Play+2009+DVD9rip+English+Klam&amp;tr=udp%3A%2F%2Ftracker.openbittorrent.com%3A80&amp;tr=udp%3A%2F%2Fopen.demonii.com%3A1337&amp;tr=udp%3A%2F%2Ftracker.coppersurfer.tk%3A6969&amp;tr=udp%3A%2F%2Fexodus.desync.com%3A6969","seeders":0,"leechers":1,"uploader":"Klambake","files":-1,"time":1292028207,"description":"With: Russell Crowe, Ben Affleck and Rachel McAdams\n\nA petty thief is gunned down in an alley and a Congressman's assistant falls in front of a subway - two seemingly unrelated deaths. But not to wisecracking, brash newspaper reporter Cal McAffrey who spies a conspiracy waiting to be uncovered. With a turbulent past connected to the Congressman and the aid of ambitious young rookie writer Della Frye, Cal begins uprooting clues that lead him to a corporate cover-up full of insiders, informants, and assassins. But as he draws closer to the truth, the relentless journalist must decide if it's worth risking his life and selling his soul to get the ultimate story. \n\nGeneral:\n\nComplete name                    : State Of\\Play.avi\nFormat                           : AVI\nFormat/Info                      : Audio Video Interleave\nFile size                        : 1.96 GiB\nDuration                         : 2h 1mn\nOverall bit rate                 : 2 300 Kbps\n\nVideo:\n\nFormat                           : MPEG-4 Visual\nFormat profile                   : Simple@L3\nFormat settings, BVOP            : No\nFormat settings, QPel            : No\nFormat settings, GMC             : No warppoints\nFormat settings, Matrix          : Default (H.263)\nCodec ID                         : XVID\nCodec ID/Hint                    : XviD\nDuration                         : 2h 1mn\nBit rate                         : 1 905 Kbps\nWidth                            : 720 pixels\nHeight                           : 576 pixels\nDisplay aspect ratio             : 5:4\nFrame rate                       : 25.000 fps\nStandard                         : PAL\nColor space                      : YUV\nChroma subsampling               : 4:2:0\nBit depth                        : 8 bits\nScan type                        : Progressive\nBits/(Pixel*Frame)               : 0.184\nStream size                      : 1.62 GiB (83%)\nWriting library                  : XviD 1.1.2 (UTC 2006-11-01)\n\nAudio:\n\nFormat                           : AC-3\nFormat/Info                      : Audio Coding 3\nMode extension                   : CM (complete main)\nCodec ID                         : 2000\nDuration                         : 2h 1mn\nBit rate mode                    : Constant\nBit rate                         : 384 Kbps\nChannel(s)                       : 6 channels\nChannel positions                : Front: L C R, Side: L R, LFE\nSampling rate                    : 48.0 KHz\nBit depth                        : 16 bits\nStream size                      : 335 MiB (17%)\nAlignment                        : Aligned on interleaves\nInterleave, duration             : 32 ms (0.80 video frame)\n","torrent":{"xt":"urn:btih:43e84dd6a6799b54bebb7deae0c60a878eaac5b9","amp;dn":"State+of+Play+2009+DVD9rip+English+Klam","amp;tr":["udp%3A%2F%2Ftracker.openbittorrent.com%3A80","udp%3A%2F%2Fopen.demonii.com%3A1337","udp%3A%2F%2Ftracker.coppersurfer.tk%3A6969","udp%3A%2F%2Fexodus.desync.com%3A6969"],"infoHash":"43e84dd6a6799b54bebb7deae0c60a878eaac5b9","infoHashBuffer":{"type":"Buffer","data":[67,232,77,214,166,121,155,84,190,187,125,234,224,198,10,135,142,170,197,185]},"announce":[],"urlList":[]}}